<svg xmlns="http://www.w3.org/2000/svg" version="1.1" xmlnsXlink="http://www.w3.org/1999/xlink" xmlnsSvgjs="http://svgjs.com/svgjs" width="1920" height="1080" preserveAspectRatio="none" viewBox="0 0 1920 1080"><g mask="url(&quot;#SvgjsMask1233&quot;)" fill="none"><rect width="1920" height="1080" x="0" y="0" fill="rgba(24, 24, 24, 1)"></rect><path d="M84 1080L1164 0L1263 0L183 1080z" fill="url(#SvgjsLinearGradient1234)"></path><path d="M734.6 1080L1814.6 0L2657.6 0L1577.6 1080z" fill="url(#SvgjsLinearGradient1234)"></path><path d="M1860 1080L780 0L109.5 0L1189.5 1080z" fill="url(#SvgjsLinearGradient1235)"></path><path d="M1189.4 1080L109.40000000000009 0L-513.0999999999999 0L566.9000000000001 1080z" fill="url(#SvgjsLinearGradient1235)"></path><path d="M1273.9915833880389 1080L1920 433.99158338803886L1920 1080z" fill="url(#SvgjsLinearGradient1234)"></path><path d="M0 1080L646.0084166119611 1080L 0 433.99158338803886z" fill="url(#SvgjsLinearGradient1235)"></path></g><defs><mask id="SvgjsMask1233"><rect width="1920" height="1080" fill="#ffffff"></rect></mask><linearGradient x1="0%" y1="100%" x2="100%" y2="0%" id="SvgjsLinearGradient1234"><stop stop-color="rgba(146, 39, 41, 1)" offset="0"></stop><stop stop-opacity="0" stop-color="rgba(146, 39, 41, 1)" offset="0.66"></stop></linearGradient><linearGradient x1="100%" y1="100%" x2="0%" y2="0%" id="SvgjsLinearGradient1235"><stop stop-color="rgba(146, 39, 41, 1)" offset="0"></stop><stop stop-opacity="0" stop-color="rgba(146, 39, 41, 1)" offset="0.66"></stop></linearGradient></defs></svg>